<?xml version="1.0" encoding="iso-8859-1"?>
<!-- Uploaded to: SVG Repo, www.svgrepo.com, Generator: SVG Repo Mixer Tools -->
<svg height="800px" width="800px" version="1.1" id="Layer_1" xmlns="http://www.w3.org/2000/svg" xmlns:xlink="http://www.w3.org/1999/xlink" 
	 viewBox="0 0 512 512" xml:space="preserve">
<g transform="translate(1 1)">
	<g>
		<polygon style="fill:#FFDD09;" points="186.733,459.8 237.933,459.8 237.933,425.667 186.733,425.667 		"/>
		<polygon style="fill:#FFDD09;" points="186.733,425.667 237.933,425.667 237.933,391.533 186.733,391.533 		"/>
		<polygon style="fill:#FFDD09;" points="186.733,493.933 237.933,493.933 237.933,459.8 186.733,459.8 		"/>
		<path style="fill:#FFDD09;" d="M502.467,408.6v-34.133h-10.24c-2.56-15.36-8.533-29.867-17.067-41.813l6.827-6.827l-23.893-23.893
			l-6.827,6.827c-11.947-8.533-26.453-14.507-41.813-17.067V280.6H375.32v10.24c-15.36,2.56-29.867,8.533-41.813,17.067
			l-6.827-6.827l-23.893,23.893l6.827,6.827c-8.533,11.947-14.507,26.453-17.067,41.813H280.6v34.133h10.24
			c2.56,15.36,8.533,29.867,17.067,41.813l-6.827,6.827l23.893,23.893l6.827-6.827c11.947,8.533,26.453,14.507,41.813,17.067v11.947
			h34.133v-10.24c15.36-2.56,29.867-8.533,41.813-17.067l6.827,6.827l23.893-23.893l-6.827-6.827
			c8.533-11.947,14.507-26.453,17.067-41.813h11.947V408.6z"/>
		<path style="fill:#FFDD09;" d="M161.133,101.4V67.267c-33.28,0-59.733,26.453-59.733,59.733h-8.533v93.867h51.2V127h-8.533
			C135.533,112.493,146.627,101.4,161.133,101.4"/>
		<polygon style="fill:#FFDD09;" points="502.467,41.667 212.333,41.667 195.267,7.533 502.467,7.533 		"/>
		<path style="fill:#FFDD09;" d="M152.6,434.2c0,37.547-30.72,68.267-68.267,68.267s-68.267-30.72-68.267-68.267
			s30.72-68.267,68.267-68.267S152.6,396.653,152.6,434.2"/>
		<path style="fill:#FFDD09;" d="M502.467,41.667H212.333v179.2H7.533v170.667h23.893c12.8-15.36,31.573-25.6,52.907-25.6
			s40.96,10.24,52.907,25.6h100.693c0-84.48,69.12-153.6,153.6-153.6c43.52,0,82.773,17.92,110.933,47.787V41.667z"/>
	</g>
	<path style="fill:#FFFFFF;" d="M33.133,220.867h-25.6v170.667h23.893c0.853-0.853,1.707-1.707,1.707-2.56V220.867z"/>
	<path style="fill:#FD9808;" d="M502.467,285.72V7.533h-25.6v256C486.253,270.36,494.787,277.187,502.467,285.72"/>
	<path style="fill:#54C9FD;" d="M448.707,195.267H383c-9.387,0-17.067-7.68-17.067-17.067V92.867c0-9.387,7.68-17.067,17.067-17.067
		h52.907c8.533,0,16.213,6.827,17.067,15.36l15.36,87.04C469.187,188.44,458.947,195.267,448.707,195.267"/>
	<path style="fill:#33A9F8;" d="M452.973,91.16c-0.853-8.533-8.533-15.36-17.067-15.36h-25.6c8.533,0,16.213,6.827,17.067,15.36
		l15.36,87.04c0.853,10.24-9.387,17.067-19.627,17.067h25.6c10.24,0,20.48-6.827,19.627-17.067L452.973,91.16z"/>
	<path style="fill:#54C9FD;" d="M324.973,193.56l-51.2,40.96c-11.093,8.533-27.307,0.853-27.307-13.653v-128
		c0-9.387,7.68-17.067,17.067-17.067h51.2c9.387,0,17.067,7.68,17.067,17.067v87.04C331.8,185.027,329.24,190.147,324.973,193.56"/>
	<path style="fill:#33A9F8;" d="M314.733,75.8h-25.6c9.387,0,17.067,7.68,17.067,17.067v102.4c0,5.12-2.56,10.24-6.827,13.653
		l-35.84,29.013c3.413,0,7.68-0.853,11.093-3.413l51.2-40.96c4.267-3.413,6.827-8.533,6.827-13.653v-87.04
		C331.8,83.48,324.12,75.8,314.733,75.8"/>
	<path style="fill:#1CD759;" d="M442.733,391.533c0,28.16-23.04,51.2-51.2,51.2s-51.2-23.04-51.2-51.2s23.04-51.2,51.2-51.2
		S442.733,363.373,442.733,391.533"/>
	<path style="fill:#15A143;" d="M391.533,340.333c-2.56,0-5.973,0-8.533,0.853c23.893,4.267,42.667,24.747,42.667,50.347
		S406.893,437.613,383,441.88c2.56,0.853,5.973,0.853,8.533,0.853c28.16,0,51.2-23.04,51.2-51.2S419.693,340.333,391.533,340.333"/>
	<path style="fill:#1CD759;" d="M161.133,314.733H67.267v-51.2h93.867c14.507,0,25.6,11.093,25.6,25.6
		C186.733,303.64,175.64,314.733,161.133,314.733"/>
	<path style="fill:#15A143;" d="M161.133,263.533h-25.6c14.507,0,25.6,11.093,25.6,25.6c0,14.507-11.093,25.6-25.6,25.6h25.6
		c14.507,0,25.6-11.093,25.6-25.6C186.733,274.627,175.64,263.533,161.133,263.533"/>
	<path style="fill:#1CD759;" d="M109.933,434.2c0,14.507-11.093,25.6-25.6,25.6s-25.6-11.093-25.6-25.6
		c0-14.507,11.093-25.6,25.6-25.6S109.933,419.693,109.933,434.2"/>
	<path d="M408.6,511h-34.133c-5.12,0-8.533-3.413-8.533-8.533v-3.413c-11.947-2.56-22.187-6.827-32.427-13.653l-2.56,2.56
		c-1.707,1.707-3.413,2.56-5.973,2.56l0,0c-2.56,0-4.267-0.853-5.973-2.56l-23.893-23.893c-3.413-3.413-3.413-8.533,0-11.947
		l2.56-2.56c-5.973-10.24-11.093-21.333-13.653-32.427H280.6c-5.12,0-8.533-3.413-8.533-8.533v-34.133
		c0-5.12,3.413-8.533,8.533-8.533h3.413c2.56-11.947,6.827-22.187,13.653-32.427l-2.56-2.56c-1.707-1.707-2.56-3.413-2.56-5.973
		s0.853-4.267,2.56-5.973L319,295.107c1.707-1.707,3.413-2.56,5.973-2.56l0,0c2.56,0,4.267,0.853,5.973,2.56l2.56,2.56
		c10.24-5.973,21.333-11.093,32.427-13.653V280.6c0-5.12,3.413-8.533,8.533-8.533H408.6c5.12,0,8.533,3.413,8.533,8.533v3.413
		c11.947,2.56,22.187,6.827,32.427,13.653l2.56-2.56c3.413-3.413,8.533-3.413,11.947,0L487.96,319
		c1.707,1.707,2.56,3.413,2.56,5.973s-0.853,4.267-2.56,5.973l-2.56,2.56c5.973,10.24,11.093,21.333,13.653,32.427h3.413
		c5.12,0,8.533,3.413,8.533,8.533V408.6c0,5.12-3.413,8.533-8.533,8.533h-3.413c-2.56,11.947-6.827,22.187-13.653,32.427l2.56,2.56
		c3.413,3.413,3.413,8.533,0,11.947l-23.893,23.893c-1.707,1.707-3.413,2.56-5.973,2.56l0,0c-2.56,0-4.267-0.853-5.973-2.56
		l-2.56-2.56c-10.24,5.973-21.333,11.093-32.427,13.653v3.413C417.133,507.587,413.72,511,408.6,511z M383,493.933h17.067v-1.707
		c0-4.267,3.413-7.68,6.827-8.533c13.653-2.56,27.307-7.68,38.4-16.213c3.413-2.56,7.68-1.707,11.093,0.853l0.853,0.853
		l11.947-11.947l-0.853-0.853c-2.56-2.56-3.413-7.68-0.853-11.093c8.533-11.947,13.653-24.747,16.213-38.4
		c0.853-4.267,4.267-6.827,8.533-6.827h1.707V383h-1.707c-4.267,0-7.68-3.413-8.533-6.827c-2.56-13.653-7.68-27.307-16.213-38.4
		c-2.56-3.413-1.707-7.68,0.853-11.093l0.853-0.853L457.24,313.88l-0.853,0.853c-2.56,2.56-7.68,3.413-11.093,0.853
		c-11.947-8.533-24.747-13.653-38.4-16.213c-4.267-0.853-6.827-4.267-6.827-8.533v-1.707H383v1.707c0,4.267-3.413,7.68-6.827,8.533
		c-13.653,2.56-27.307,7.68-38.4,16.213c-3.413,2.56-7.68,1.707-11.093-0.853l-0.853-0.853l-11.947,11.947l0.853,0.853
		c2.56,2.56,3.413,7.68,0.853,11.093c-8.533,11.947-13.653,24.747-16.213,38.4c-0.853,4.267-4.267,6.827-8.533,6.827h-1.707v17.067
		h1.707c4.267,0,7.68,3.413,8.533,6.827c2.56,13.653,7.68,27.307,16.213,38.4c2.56,3.413,1.707,7.68-0.853,11.093l-0.853,0.853
		l11.947,11.947l0.853-0.853c2.56-2.56,7.68-3.413,11.093-0.853c11.947,8.533,24.747,13.653,38.4,16.213
		c4.267,0.853,6.827,4.267,6.827,8.533L383,493.933L383,493.933z"/>
	<path d="M448.707,203.8H383c-14.507,0-25.6-11.093-25.6-25.6V92.867c0-14.507,11.093-25.6,25.6-25.6h52.907
		c12.8,0,23.893,9.387,25.6,22.187l15.36,87.04c0.853,6.827-0.853,12.8-5.12,17.92C465.773,200.387,458.093,203.8,448.707,203.8z
		 M383,84.333c-5.12,0-8.533,3.413-8.533,8.533V178.2c0,5.12,3.413,8.533,8.533,8.533h65.707c3.413,0,7.68-1.707,9.387-3.413
		c1.707-1.707,1.707-2.56,0.853-3.413L444.44,92.013c-0.853-4.267-4.267-7.68-8.533-7.68H383z"/>
	<path d="M263.533,246.467c-3.413,0-7.68-0.853-11.093-2.56c-8.533-4.267-14.507-12.8-14.507-23.04v-128
		c0-14.507,11.093-25.6,25.6-25.6h51.2c14.507,0,25.6,11.093,25.6,25.6v87.04c0,7.68-3.413,15.36-9.387,19.627l0,0l-51.2,40.96
		C274.627,244.76,269.507,246.467,263.533,246.467z M263.533,84.333c-5.12,0-8.533,3.413-8.533,8.533v128
		c0,3.413,1.707,5.973,5.12,7.68s6.827,0.853,9.387-0.853l51.2-40.96c1.707-1.707,3.413-4.267,3.413-6.827v-87.04
		c0-5.12-3.413-8.533-8.533-8.533H263.533z M324.973,193.56L324.973,193.56L324.973,193.56z"/>
	<path d="M144.067,229.4h-51.2c-5.12,0-8.533-3.413-8.533-8.533V127c0-5.12,3.413-8.533,8.533-8.533h0.853
		c4.267-33.28,33.28-59.733,67.413-59.733c5.12,0,8.533,3.413,8.533,8.533V101.4c0,5.12-3.413,8.533-8.533,8.533
		c-6.827,0-11.947,3.413-14.507,8.533c3.413,0.853,5.973,4.267,5.973,8.533v93.867C152.6,225.987,149.187,229.4,144.067,229.4z
		 M101.4,212.333h34.133v-76.8c-5.12,0-8.533-3.413-8.533-8.533c0-16.213,11.093-29.013,25.6-33.28V76.653
		C128.707,80.92,109.933,101.4,109.933,127c0,5.12-3.413,8.533-8.533,8.533V212.333z"/>
	<path d="M391.533,451.267c-33.28,0-59.733-26.453-59.733-59.733s26.453-59.733,59.733-59.733s59.733,26.453,59.733,59.733
		S424.813,451.267,391.533,451.267z M391.533,348.867c-23.893,0-42.667,18.773-42.667,42.667S367.64,434.2,391.533,434.2
		s42.667-18.773,42.667-42.667S415.427,348.867,391.533,348.867z"/>
	<path d="M400.067,374.467c0,5.12-3.413,8.533-8.533,8.533S383,379.587,383,374.467c0-5.12,3.413-8.533,8.533-8.533
		S400.067,369.347,400.067,374.467"/>
	<path d="M383,391.533c0,5.12-3.413,8.533-8.533,8.533c-5.12,0-8.533-3.413-8.533-8.533s3.413-8.533,8.533-8.533
		C379.587,383,383,386.413,383,391.533"/>
	<path d="M417.133,391.533c0,5.12-3.413,8.533-8.533,8.533c-5.12,0-8.533-3.413-8.533-8.533S403.48,383,408.6,383
		C413.72,383,417.133,386.413,417.133,391.533"/>
	<path d="M400.067,408.6c0,5.12-3.413,8.533-8.533,8.533S383,413.72,383,408.6c0-5.12,3.413-8.533,8.533-8.533
		S400.067,403.48,400.067,408.6"/>
	<path d="M161.133,323.267H67.267c-5.12,0-8.533-3.413-8.533-8.533v-51.2c0-5.12,3.413-8.533,8.533-8.533h93.867
		c18.773,0,34.133,15.36,34.133,34.133C195.267,307.907,179.907,323.267,161.133,323.267z M75.8,306.2h85.333
		c9.387,0,17.067-7.68,17.067-17.067c0-9.387-7.68-17.067-17.067-17.067H75.8V306.2z"/>
	<path d="M502.467,50.2H212.333c-3.413,0-5.973-1.707-7.68-5.12l-17.067-34.133c-1.707-2.56-0.853-5.973,0-8.533
		c1.707-1.707,5.12-3.413,7.68-3.413h307.2C507.587-1,511,2.413,511,7.533v34.133C511,46.787,507.587,50.2,502.467,50.2z
		 M217.453,33.133h276.48V16.067H208.92L217.453,33.133z"/>
	<path d="M237.933,434.2h-51.2c-5.12,0-8.533-3.413-8.533-8.533v-34.133c0-5.12,3.413-8.533,8.533-8.533h51.2
		c5.12,0,8.533,3.413,8.533,8.533v34.133C246.467,430.787,243.053,434.2,237.933,434.2z M195.267,417.133H229.4v-17.067h-34.133
		V417.133z"/>
	<path d="M237.933,468.333h-51.2c-5.12,0-8.533-3.413-8.533-8.533v-34.133c0-5.12,3.413-8.533,8.533-8.533h51.2
		c5.12,0,8.533,3.413,8.533,8.533V459.8C246.467,464.92,243.053,468.333,237.933,468.333z M195.267,451.267H229.4V434.2h-34.133
		V451.267z"/>
	<path d="M237.933,502.467h-51.2c-5.12,0-8.533-3.413-8.533-8.533V459.8c0-5.12,3.413-8.533,8.533-8.533h51.2
		c5.12,0,8.533,3.413,8.533,8.533v34.133C246.467,499.053,243.053,502.467,237.933,502.467z M195.267,485.4H229.4v-17.067h-34.133
		V485.4z"/>
	<path d="M84.333,468.333c-18.773,0-34.133-15.36-34.133-34.133c0-18.773,15.36-34.133,34.133-34.133s34.133,15.36,34.133,34.133
		C118.467,452.973,103.107,468.333,84.333,468.333z M84.333,417.133c-9.387,0-17.067,7.68-17.067,17.067s7.68,17.067,17.067,17.067
		s17.067-7.68,17.067-17.067S93.72,417.133,84.333,417.133z"/>
	<path d="M84.333,511c-42.667,0-76.8-34.133-76.8-76.8s34.133-76.8,76.8-76.8s76.8,34.133,76.8,76.8S127,511,84.333,511z
		 M84.333,374.467c-33.28,0-59.733,26.453-59.733,59.733s26.453,59.733,59.733,59.733s59.733-26.453,59.733-59.733
		S117.613,374.467,84.333,374.467z"/>
	<path d="M237.933,400.067H137.24c-2.56,0-5.12-0.853-6.827-3.413c-11.093-13.653-28.16-22.187-46.08-22.187
		S49.347,383,37.4,396.653c-1.707,2.56-3.413,3.413-5.973,3.413H7.533c-5.12,0-8.533-3.413-8.533-8.533V220.867
		c0-5.12,3.413-8.533,8.533-8.533H203.8V41.667c0-5.12,3.413-8.533,8.533-8.533h290.133c5.12,0,8.533,3.413,8.533,8.533V285.72
		c0,3.413-1.707,6.827-5.12,7.68c-3.413,1.707-6.827,0.853-9.387-1.707c-28.16-29.013-64.853-45.227-104.96-45.227
		c-80.213,0-145.067,64.853-145.067,145.067C246.467,396.653,243.053,400.067,237.933,400.067z M141.507,383H229.4
		c4.267-85.333,75.093-153.6,162.133-153.6c37.547,0,73.387,12.8,102.4,36.693V50.2H220.867v170.667c0,5.12-3.413,8.533-8.533,8.533
		H16.067V383H27.16c14.507-16.213,34.987-25.6,57.173-25.6S127,366.787,141.507,383z"/>
</g>
</svg>